<svg viewBox="0 0 484 98" fill="none" xmlns="http://www.w3.org/2000/svg">
<path d="M83.9853 36.4412C83.9853 42.6544 81.4633 49.4265 77.5588 53.6985C77.2975 53.9746 76.9394 54.1388 76.5597 54.1566C76.1799 54.1744 75.8081 54.0445 75.5221 53.7941C75.2438 53.5325 75.0783 53.1729 75.0604 52.7914C75.0426 52.4099 75.1739 52.0364 75.4265 51.75C78.8677 47.9853 81.0956 41.9706 81.0956 36.4412C81.0956 30.9118 78.8897 25 75.5294 21.25C75.3533 21.039 75.2399 20.7828 75.202 20.5105C75.1641 20.2383 75.2032 19.9609 75.315 19.7097C75.4268 19.4586 75.6067 19.2439 75.8343 19.0898C76.062 18.9358 76.3283 18.8486 76.6029 18.8382H76.6764C77.0593 18.861 77.4183 19.0325 77.6765 19.3162C81.4927 23.5662 83.9853 30.2941 83.9853 36.4412Z" fill="#5A5A5A"/>
<path d="M75.8309 36.4706C75.8309 40.625 74.1838 45.2132 71.7353 47.8897C71.474 48.1658 71.1159 48.33 70.7362 48.3478C70.3565 48.3656 69.9845 48.2357 69.6985 47.9853C69.4203 47.7237 69.2547 47.3641 69.2369 46.9826C69.2191 46.6011 69.3503 46.2276 69.6029 45.9412C71.5368 43.8235 72.9412 39.8382 72.9412 36.4706C72.9412 33.1029 71.5662 29.1618 69.6692 27.0588C69.4126 26.7731 69.2781 26.3984 69.2942 26.0147C69.3203 25.6428 69.4866 25.2947 69.7596 25.0408C70.0327 24.7869 70.3919 24.6462 70.7648 24.6471H70.8456C71.2259 24.6717 71.5818 24.8431 71.8383 25.125C74.5883 28.2059 75.8309 33.0441 75.8309 36.4706Z" fill="#5A5A5A"/>
<path d="M8.45588 51.7794C8.70974 52.0663 8.84165 52.4409 8.82353 52.8235C8.81596 53.0132 8.77044 53.1994 8.68961 53.3712C8.60878 53.543 8.49431 53.6968 8.35297 53.8235C8.06469 54.0743 7.6901 54.203 7.30856 54.1824C6.92702 54.1619 6.56847 53.9936 6.30884 53.7132C2.47795 49.4632 0 42.7426 0 36.5882C0 30.4338 2.52205 23.6029 6.42646 19.3309C6.56273 19.1839 6.72763 19.0664 6.91097 18.9855C7.09432 18.9045 7.29225 18.862 7.49265 18.8603C7.76804 18.8709 8.03491 18.9587 8.26281 19.1137C8.49072 19.2686 8.67051 19.4845 8.78166 19.7367C8.89281 19.9889 8.93083 20.2672 8.89143 20.54C8.85203 20.8128 8.7368 21.069 8.55883 21.2794C5.11766 25.0515 2.8897 31.0588 2.8897 36.5882C2.8897 42.1176 5.07353 48.0074 8.45588 51.7794Z" fill="#5A5A5A"/>
<path d="M14.3235 45.9485C14.5774 46.2354 14.7093 46.61 14.6912 46.9926C14.6684 47.3755 14.4969 47.7344 14.2132 47.9927C13.9254 48.2412 13.5524 48.3686 13.1726 48.348C12.7929 48.3274 12.4358 48.1606 12.1765 47.8824C9.39704 44.8015 8.15442 39.9706 8.15442 36.5441C8.15442 32.3897 9.80148 27.7941 12.25 25.1176C12.5095 24.8367 12.8682 24.6679 13.25 24.6471H13.3162C13.5916 24.6577 13.8584 24.7455 14.0863 24.9004C14.3142 25.0554 14.494 25.2713 14.6052 25.5235C14.7163 25.7757 14.7544 26.054 14.715 26.3268C14.6756 26.5995 14.5603 26.8558 14.3823 27.0662C12.4485 29.1838 11.0441 33.1691 11.0441 36.5441C11.0441 39.9191 12.4191 43.8456 14.3235 45.9485Z" fill="#5A5A5A"/>
<path d="M58.772 1H25.2132C23.6726 1 22.1951 1.61199 21.1058 2.70135C20.0164 3.79072 19.4044 5.26822 19.4044 6.80882V64.4191C19.4064 65.9584 20.0192 67.434 21.1084 68.5218C22.1975 69.6096 23.6739 70.2206 25.2132 70.2206H58.772C60.3114 70.2206 61.7878 69.6096 62.8769 68.5218C63.9661 67.434 64.5789 65.9584 64.5809 64.4191V6.80882C64.5809 5.26822 63.9689 3.79072 62.8795 2.70135C61.7902 1.61199 60.3126 1 58.772 1ZM61.7132 64.4191C61.7132 65.1992 61.4034 65.9473 60.8518 66.4988C60.3002 67.0504 59.5521 67.3603 58.772 67.3603H25.2132C24.4332 67.3603 23.6851 67.0504 23.1335 66.4988C22.582 65.9473 22.2721 65.1992 22.2721 64.4191V55.7427H61.6692L61.7132 64.4191ZM61.7132 52.8603H22.3162V6.80882C22.3162 6.02877 22.6261 5.28067 23.1776 4.72909C23.7292 4.17751 24.4773 3.86764 25.2574 3.86764H58.8162C59.5963 3.86764 60.3443 4.17751 60.8959 4.72909C61.4475 5.28067 61.7574 6.02877 61.7574 6.80882L61.7132 52.8603Z" fill="#5A5A5A"/>
<path d="M45.8383 61.5883C45.8383 61.9783 45.6833 62.3523 45.4075 62.6281C45.1318 62.9039 44.7577 63.0588 44.3677 63.0588H39.5809C39.2444 62.995 38.9408 62.8158 38.7223 62.552C38.5038 62.2883 38.3843 61.9565 38.3843 61.614C38.3843 61.2715 38.5038 60.9397 38.7223 60.676C38.9408 60.4122 39.2444 60.2329 39.5809 60.1691H44.3751C44.7551 60.1708 45.1197 60.3195 45.3925 60.5841C45.6652 60.8486 45.825 61.2085 45.8383 61.5883Z" fill="#5A5A5A"/>
<path d="M28.68 89V94.69C28.68 94.7367 28.6933 94.7767 28.72 94.81C28.7533 94.8433 28.7933 94.86 28.84 94.86H32.26C32.3067 94.86 32.3433 94.8433 32.37 94.81C32.4033 94.7767 32.42 94.7367 32.42 94.69V89H33.57V94.69C33.57 94.87 33.5333 95.04 33.46 95.2C33.3933 95.36 33.3 95.5 33.18 95.62C33.0667 95.7333 32.93 95.8267 32.77 95.9C32.61 95.9667 32.44 96 32.26 96H28.84C28.66 96 28.49 95.9667 28.33 95.9C28.17 95.8267 28.03 95.7333 27.91 95.62C27.7967 95.5 27.7033 95.36 27.63 95.2C27.5633 95.04 27.53 94.87 27.53 94.69V89H28.68ZM40.6696 91.89C40.9696 92.1033 41.2096 92.38 41.3896 92.72C41.5763 93.0533 41.6696 93.42 41.6696 93.82V94.16C41.6696 94.4133 41.6196 94.6533 41.5196 94.88C41.4263 95.1 41.2963 95.2933 41.1296 95.46C40.9629 95.6267 40.7663 95.76 40.5396 95.86C40.3196 95.9533 40.0829 96 39.8296 96H35.5596V94.86H39.5796C39.7129 94.86 39.8363 94.8367 39.9496 94.79C40.0629 94.7367 40.1596 94.6667 40.2396 94.58C40.3263 94.4933 40.3929 94.3933 40.4396 94.28C40.4929 94.16 40.5196 94.0367 40.5196 93.91V93.82C40.5196 93.6533 40.4863 93.4967 40.4196 93.35C40.3596 93.1967 40.2729 93.0667 40.1596 92.96C40.0529 92.8467 39.9263 92.76 39.7796 92.7C39.6329 92.6333 39.4763 92.6 39.3096 92.6H36.5296C36.3429 92.6 36.1663 92.5667 35.9996 92.5C35.8396 92.4267 35.6996 92.33 35.5796 92.21C35.4596 92.09 35.3629 91.95 35.2896 91.79C35.2229 91.6233 35.1896 91.45 35.1896 91.27V90.34C35.1896 90.1533 35.2229 89.98 35.2896 89.82C35.3629 89.6533 35.4596 89.51 35.5796 89.39C35.6996 89.27 35.8396 89.1767 35.9996 89.11C36.1663 89.0367 36.3429 89 36.5296 89H40.6096V90.15H36.7796C36.6529 90.15 36.5463 90.1933 36.4596 90.28C36.3796 90.36 36.3396 90.4633 36.3396 90.59V91.01C36.3396 91.1367 36.3796 91.2433 36.4596 91.33C36.5463 91.4167 36.6529 91.46 36.7796 91.46H39.2796C39.6263 91.46 39.9096 91.51 40.1296 91.61C40.3563 91.71 40.5363 91.8033 40.6696 91.89ZM43.2518 89H48.6418V90.15H44.4018V92.73H48.0018V93.87H44.4018V94.86H48.6418V96H43.2518V89ZM50.2823 96V89H54.4723C54.7256 89 54.9623 89.05 55.1823 89.15C55.4089 89.2433 55.6056 89.3733 55.7723 89.54C55.9389 89.7067 56.0689 89.9033 56.1623 90.13C56.2623 90.35 56.3123 90.5867 56.3123 90.84V91.34C56.3123 91.74 56.2189 92.11 56.0323 92.45C55.8523 92.7833 55.6123 93.0567 55.3123 93.27C55.3723 93.27 55.4456 93.2833 55.5323 93.31C55.6256 93.3367 55.7123 93.38 55.7923 93.44C55.8789 93.4933 55.9523 93.5633 56.0123 93.65C56.0723 93.7367 56.1023 93.8433 56.1023 93.97V96H54.9523V94.27C54.9523 94.03 54.8823 93.8767 54.7423 93.81C54.6023 93.7433 54.4156 93.71 54.1823 93.71H51.4223V96H50.2823ZM51.4223 92.56H53.9523C54.1189 92.56 54.2756 92.53 54.4223 92.47C54.5756 92.4033 54.7056 92.3167 54.8123 92.21C54.9256 92.0967 55.0123 91.9667 55.0723 91.82C55.1389 91.6667 55.1723 91.5067 55.1723 91.34V91.09C55.1723 90.9567 55.1456 90.8333 55.0923 90.72C55.0456 90.6067 54.9789 90.51 54.8923 90.43C54.8056 90.3433 54.7056 90.2767 54.5923 90.23C54.4789 90.1767 54.3556 90.15 54.2223 90.15H51.4223V92.56Z" fill="#BFBFBF"/>
<path d="M463.272 2.3874e-05H419.529C418.329 0.0019683 417.178 0.479787 416.329 1.3288C415.48 2.1778 415.002 3.32876 415 4.52944V48.2794C415 49.4807 415.477 50.6328 416.327 51.4822C417.176 52.3316 418.328 52.8089 419.529 52.8089H419.603V68.9853C419.603 69.5801 419.72 70.1691 419.948 70.7187C420.175 71.2682 420.509 71.7675 420.93 72.1881C421.35 72.6087 421.85 72.9423 422.399 73.17C422.949 73.3976 423.538 73.5147 424.132 73.5147H458.691C459.286 73.5147 459.875 73.3976 460.425 73.17C460.974 72.9423 461.473 72.6087 461.894 72.1881C462.315 71.7675 462.648 71.2682 462.876 70.7187C463.103 70.1691 463.221 69.5801 463.221 68.9853V52.8089H463.294C464.496 52.8089 465.649 52.3319 466.499 51.4827C467.35 50.6334 467.829 49.4814 467.831 48.2794V4.52944C467.829 3.9327 467.71 3.34218 467.479 2.7916C467.249 2.24102 466.913 1.74116 466.49 1.32056C466.066 0.899965 465.564 0.566873 465.012 0.340295C464.46 0.113717 463.869 -0.00191046 463.272 2.3874e-05ZM458.669 71.375H424.11C423.798 71.375 423.49 71.3136 423.201 71.1942C422.913 71.0749 422.651 70.8999 422.431 70.6794C422.21 70.4589 422.035 70.1971 421.916 69.9089C421.797 69.6208 421.735 69.3119 421.735 69V57.4191H461.066V69.0074C461.066 69.3199 461.005 69.6293 460.885 69.918C460.765 70.2066 460.589 70.4687 460.368 70.6894C460.147 70.91 459.884 71.0848 459.595 71.2037C459.306 71.3226 458.996 71.3833 458.684 71.3824L458.669 71.375ZM465.654 48.2794C465.652 48.91 465.401 49.5141 464.954 49.9593C464.507 50.4044 463.903 50.6544 463.272 50.6544H459.824C459.675 50.6421 459.525 50.6608 459.383 50.7094C459.242 50.7579 459.112 50.8352 459.002 50.9365C458.892 51.0377 458.805 51.1606 458.745 51.2975C458.685 51.4344 458.654 51.5822 458.654 51.7317C458.654 51.8811 458.685 52.0289 458.745 52.1658C458.805 52.3027 458.892 52.4256 459.002 52.5268C459.112 52.628 459.242 52.7054 459.383 52.7539C459.525 52.8025 459.675 52.8212 459.824 52.8089H461.066V55.2574H421.779V52.8089H455.243C455.513 52.7865 455.765 52.6633 455.949 52.4638C456.132 52.2642 456.234 52.0029 456.234 51.7317C456.234 51.4604 456.132 51.1991 455.949 50.9995C455.765 50.8 455.513 50.6768 455.243 50.6544H419.552C418.922 50.6544 418.318 50.4042 417.872 49.9588C417.427 49.5134 417.177 48.9093 417.177 48.2794V4.52944C417.177 3.89955 417.427 3.29545 417.872 2.85005C418.318 2.40465 418.922 2.15443 419.552 2.15443H463.272C463.903 2.15443 464.507 2.40441 464.954 2.8496C465.401 3.29479 465.652 3.89887 465.654 4.52944V48.2794Z" fill="#5A5A5A"/>
<path d="M420.706 6.77207C420.855 6.78439 421.005 6.76569 421.146 6.71714C421.287 6.6686 421.417 6.59126 421.527 6.49003C421.637 6.3888 421.725 6.26589 421.785 6.12903C421.845 5.99216 421.876 5.84432 421.876 5.69487C421.876 5.54542 421.845 5.3976 421.785 5.26074C421.725 5.12387 421.637 5.00094 421.527 4.89971C421.417 4.79848 421.287 4.72114 421.146 4.6726C421.005 4.62405 420.855 4.60535 420.706 4.61767C420.421 4.61767 420.148 4.73076 419.947 4.93209C419.745 5.13341 419.632 5.40647 419.632 5.69119C419.632 5.97659 419.745 6.25042 419.946 6.45292C420.147 6.65541 420.421 6.77013 420.706 6.77207Z" fill="#5A5A5A"/>
<path d="M462.14 4.61768C461.999 4.61767 461.86 4.6455 461.73 4.69954C461.6 4.75358 461.482 4.83276 461.383 4.93255C461.284 5.03233 461.206 5.15074 461.153 5.28094C461.099 5.41115 461.073 5.55057 461.074 5.6912C461.061 5.84014 461.08 5.99002 461.128 6.13137C461.177 6.27272 461.254 6.40247 461.356 6.51242C461.457 6.62236 461.58 6.71013 461.717 6.77015C461.853 6.83018 462.001 6.86117 462.151 6.86117C462.3 6.86117 462.448 6.83018 462.585 6.77015C462.722 6.71013 462.845 6.62236 462.946 6.51242C463.047 6.40247 463.124 6.27272 463.173 6.13137C463.222 5.99002 463.24 5.84014 463.228 5.6912C463.228 5.54898 463.2 5.40818 463.145 5.27697C463.09 5.14575 463.01 5.02675 462.908 4.92687C462.807 4.82699 462.687 4.74822 462.555 4.69514C462.423 4.64206 462.282 4.61573 462.14 4.61768Z" fill="#5A5A5A"/>
<path d="M462.14 46.0589C461.999 46.0589 461.86 46.0867 461.73 46.1407C461.6 46.1947 461.482 46.2739 461.383 46.3737C461.284 46.4735 461.206 46.5919 461.153 46.7221C461.099 46.8523 461.073 46.9918 461.074 47.1324C461.061 47.2813 461.08 47.4312 461.128 47.5726C461.177 47.7139 461.254 47.8436 461.356 47.9536C461.457 48.0635 461.58 48.1513 461.717 48.2113C461.853 48.2713 462.001 48.3023 462.151 48.3023C462.3 48.3023 462.448 48.2713 462.585 48.2113C462.722 48.1513 462.845 48.0635 462.946 47.9536C463.047 47.8436 463.124 47.7139 463.173 47.5726C463.222 47.4312 463.24 47.2813 463.228 47.1324C463.228 46.9902 463.2 46.8493 463.145 46.7181C463.09 46.5869 463.01 46.4679 462.908 46.368C462.807 46.2682 462.687 46.1894 462.555 46.1363C462.423 46.0832 462.282 46.0569 462.14 46.0589Z" fill="#5A5A5A"/>
<path d="M420.706 46.0589C420.421 46.0589 420.148 46.1719 419.947 46.3733C419.746 46.5746 419.632 46.8477 419.632 47.1324C419.631 47.3465 419.693 47.5562 419.811 47.7349C419.929 47.9136 420.097 48.0533 420.295 48.1362C420.492 48.2191 420.709 48.2416 420.92 48.2007C421.13 48.1598 421.323 48.0575 421.475 47.9066C421.627 47.7558 421.731 47.5632 421.773 47.3533C421.815 47.1434 421.794 46.9258 421.713 46.7278C421.631 46.5299 421.492 46.3606 421.315 46.2415C421.137 46.1224 420.927 46.0589 420.713 46.0589H420.706Z" fill="#5A5A5A"/>
<path d="M460.985 9.22061H428.757C428.608 9.2083 428.459 9.227 428.317 9.27554C428.176 9.32409 428.046 9.40142 427.936 9.50265C427.826 9.60388 427.738 9.72679 427.678 9.86366C427.618 10.0005 427.587 10.1484 427.587 10.2978C427.587 10.4473 427.618 10.5951 427.678 10.7319C427.738 10.8688 427.826 10.9917 427.936 11.093C428.046 11.1942 428.176 11.2715 428.317 11.3201C428.459 11.3686 428.608 11.3873 428.757 11.375H460.985C460.995 11.3738 461.005 11.3749 461.015 11.3782C461.024 11.3815 461.033 11.3869 461.04 11.3939C461.047 11.401 461.052 11.4096 461.056 11.4191C461.059 11.4285 461.06 11.4386 461.059 11.4486V39.0736C461.06 39.0835 461.059 39.0936 461.056 39.103C461.052 39.1125 461.047 39.1211 461.04 39.1282C461.033 39.1352 461.024 39.1406 461.015 39.1439C461.005 39.1472 460.995 39.1483 460.985 39.1471H421.846C421.826 39.1471 421.807 39.1393 421.794 39.1255C421.78 39.1118 421.772 39.0931 421.772 39.0736V11.4486C421.772 11.429 421.78 11.4103 421.794 11.3966C421.807 11.3828 421.826 11.375 421.846 11.375H424.147C424.296 11.3873 424.446 11.3686 424.587 11.3201C424.729 11.2715 424.858 11.1942 424.968 11.093C425.078 10.9917 425.166 10.8688 425.226 10.7319C425.286 10.5951 425.317 10.4473 425.317 10.2978C425.317 10.1484 425.286 10.0005 425.226 9.86366C425.166 9.72679 425.078 9.60388 424.968 9.50265C424.858 9.40142 424.729 9.32409 424.587 9.27554C424.446 9.227 424.296 9.2083 424.147 9.22061H421.846C421.261 9.22061 420.7 9.453 420.286 9.86669C419.872 10.2804 419.64 10.8415 419.64 11.4265V39.0515C419.64 39.6365 419.872 40.1976 420.286 40.6113C420.7 41.025 421.261 41.2574 421.846 41.2574H460.985C461.57 41.2574 462.131 41.025 462.545 40.6113C462.959 40.1976 463.191 39.6365 463.191 39.0515V11.4486C463.194 11.157 463.139 10.8678 463.03 10.5976C462.92 10.3274 462.758 10.0816 462.553 9.87447C462.348 9.6673 462.104 9.50284 461.835 9.39061C461.566 9.27838 461.277 9.2206 460.985 9.22061Z" fill="#5A5A5A"/>
<path d="M458.61 21.8088V18.3824C458.61 17.7973 458.378 17.2363 457.964 16.8226C457.551 16.4089 456.989 16.1765 456.404 16.1765H426.471C425.886 16.1765 425.325 16.4089 424.911 16.8226C424.497 17.2363 424.265 17.7973 424.265 18.3824V21.8383C424.265 22.4233 424.497 22.9844 424.911 23.398C425.325 23.8117 425.886 24.0441 426.471 24.0441H456.404C456.697 24.0442 456.986 23.9861 457.255 23.8735C457.525 23.7608 457.769 23.5956 457.975 23.3877C458.18 23.1797 458.342 22.9331 458.451 22.662C458.56 22.391 458.614 22.101 458.61 21.8088ZM456.456 18.353V21.8088C456.457 21.8188 456.456 21.8289 456.453 21.8383C456.449 21.8478 456.444 21.8564 456.437 21.8635C456.43 21.8705 456.421 21.8759 456.412 21.8792C456.402 21.8825 456.392 21.8836 456.382 21.8824H454.007V18.2794H456.382C456.395 18.2783 456.408 18.2806 456.419 18.286C456.431 18.2913 456.441 18.2996 456.448 18.31C456.456 18.3203 456.461 18.3325 456.462 18.3452C456.463 18.3579 456.461 18.3707 456.456 18.3824V18.353ZM435.588 18.2794H438.037V21.8824H435.588V18.2794ZM433.434 21.8824H430.985V18.2794H433.434V21.8824ZM440.191 18.2794H442.64V21.8824H440.191V18.2794ZM444.794 18.2794H447.25V21.8824H444.794V18.2794ZM449.404 18.2794H451.853V21.8824H449.404V18.2794ZM426.375 21.8088V18.3824C426.377 18.3634 426.385 18.3457 426.398 18.3322C426.412 18.3188 426.43 18.3105 426.449 18.3088H428.831V21.9118H426.449C426.436 21.9129 426.423 21.9106 426.411 21.9053C426.4 21.8999 426.39 21.8916 426.382 21.8813C426.375 21.8709 426.37 21.8587 426.369 21.846C426.368 21.8333 426.37 21.8205 426.375 21.8088Z" fill="#5A5A5A"/>
<path d="M426.449 27.6397C426.178 27.6621 425.926 27.7852 425.742 27.9848C425.559 28.1843 425.457 28.4457 425.457 28.7169C425.457 28.9882 425.559 29.2495 425.742 29.4491C425.926 29.6486 426.178 29.7718 426.449 29.7941H427.603C427.873 29.7718 428.125 29.6486 428.309 29.4491C428.493 29.2495 428.595 28.9882 428.595 28.7169C428.595 28.4457 428.493 28.1843 428.309 27.9848C428.125 27.7852 427.873 27.6621 427.603 27.6397H426.449Z" fill="#5A5A5A"/>
<path d="M432.206 27.6397C431.936 27.6621 431.684 27.7852 431.5 27.9848C431.316 28.1843 431.214 28.4457 431.214 28.7169C431.214 28.9882 431.316 29.2495 431.5 29.4491C431.684 29.6486 431.936 29.7718 432.206 29.7941H433.36C433.631 29.7718 433.883 29.6486 434.066 29.4491C434.25 29.2495 434.352 28.9882 434.352 28.7169C434.352 28.4457 434.25 28.1843 434.066 27.9848C433.883 27.7852 433.631 27.6621 433.36 27.6397H432.206Z" fill="#5A5A5A"/>
<path d="M437.963 27.6397C437.693 27.6621 437.441 27.7852 437.257 27.9848C437.073 28.1843 436.971 28.4457 436.971 28.7169C436.971 28.9882 437.073 29.2495 437.257 29.4491C437.441 29.6486 437.693 29.7718 437.963 29.7941H439.118C439.388 29.7718 439.64 29.6486 439.824 29.4491C440.007 29.2495 440.11 28.9882 440.11 28.7169C440.11 28.4457 440.007 28.1843 439.824 27.9848C439.64 27.7852 439.388 27.6621 439.118 27.6397H437.963Z" fill="#5A5A5A"/>
<path d="M442.493 62.353V60.9486C442.47 60.6782 442.347 60.4262 442.148 60.2425C441.948 60.0587 441.687 59.9567 441.415 59.9567C441.144 59.9567 440.883 60.0587 440.683 60.2425C440.484 60.4262 440.361 60.6782 440.338 60.9486V62.353C439.578 62.6085 438.933 63.1262 438.518 63.8135C438.104 64.5009 437.948 65.313 438.077 66.105C438.207 66.8969 438.614 67.617 439.225 68.1366C439.837 68.6562 440.613 68.9415 441.415 68.9415C442.218 68.9415 442.994 68.6562 443.606 68.1366C444.217 67.617 444.624 66.8969 444.753 66.105C444.883 65.313 444.727 64.5009 444.312 63.8135C443.898 63.1262 443.253 62.6085 442.493 62.353ZM441.419 66.7647C441.176 66.7662 440.938 66.6954 440.735 66.5614C440.532 66.4273 440.373 66.2361 440.279 66.0118C440.185 65.7876 440.16 65.5404 440.207 65.3018C440.253 65.0631 440.369 64.8436 440.541 64.6711C440.712 64.4987 440.931 64.381 441.17 64.333C441.408 64.285 441.655 64.3089 441.88 64.4016C442.105 64.4943 442.297 64.6517 442.432 64.8538C442.568 65.0559 442.64 65.2936 442.64 65.5368C442.642 65.6987 442.612 65.8593 442.551 66.0095C442.491 66.1597 442.401 66.2965 442.288 66.412C442.174 66.5275 442.039 66.6194 441.89 66.6825C441.741 66.7455 441.581 66.7785 441.419 66.7794V66.7647Z" fill="#5A5A5A"/>
<path d="M450.993 35.8897C451.216 36.0673 451.501 36.1493 451.785 36.1176C452.069 36.0859 452.328 35.9432 452.507 35.7206L455.265 32.2647C455.393 32.1069 455.473 31.916 455.497 31.7141C455.521 31.5123 455.487 31.3078 455.399 31.1245C455.312 30.9412 455.173 30.7866 455.001 30.6786C454.829 30.5707 454.63 30.5138 454.426 30.5147H452.522L453.882 28.8162C453.971 28.7061 454.037 28.5797 454.076 28.4442C454.116 28.3087 454.128 28.1667 454.113 28.0264C454.097 27.8861 454.054 27.7502 453.986 27.6264C453.919 27.5027 453.827 27.3935 453.717 27.3052C453.607 27.2168 453.48 27.151 453.345 27.1115C453.209 27.072 453.067 27.0596 452.927 27.0749C452.787 27.0903 452.651 27.1331 452.527 27.201C452.403 27.2689 452.294 27.3605 452.206 27.4706L449.441 30.9191C449.313 31.0769 449.232 31.2679 449.209 31.4697C449.185 31.6716 449.219 31.8761 449.307 32.0594C449.394 32.2427 449.532 32.3973 449.705 32.5052C449.877 32.6132 450.076 32.67 450.279 32.6691H452.184L450.823 34.375C450.735 34.4854 450.668 34.6122 450.629 34.7482C450.589 34.8843 450.577 35.0268 450.593 35.1676C450.608 35.3084 450.652 35.4447 450.72 35.5686C450.789 35.6926 450.882 35.8017 450.993 35.8897Z" fill="#5A5A5A"/>
<path d="M399.56 96V89H403.75C404.003 89 404.24 89.05 404.46 89.15C404.687 89.2433 404.883 89.3733 405.05 89.54C405.217 89.7067 405.347 89.9033 405.44 90.13C405.54 90.35 405.59 90.5867 405.59 90.84V91.34C405.59 91.74 405.497 92.11 405.31 92.45C405.13 92.7833 404.89 93.0567 404.59 93.27C404.463 93.35 404.327 93.4233 404.18 93.49C404.053 93.5433 403.907 93.5933 403.74 93.64C403.573 93.6867 403.397 93.71 403.21 93.71H400.71V96H399.56ZM400.71 92.56H403.23C403.397 92.56 403.553 92.53 403.7 92.47C403.853 92.4033 403.983 92.3167 404.09 92.21C404.203 92.0967 404.29 91.9667 404.35 91.82C404.417 91.6667 404.45 91.5067 404.45 91.34V91.09C404.45 90.9567 404.423 90.8333 404.37 90.72C404.323 90.6067 404.257 90.51 404.17 90.43C404.083 90.3433 403.983 90.2767 403.87 90.23C403.757 90.1767 403.633 90.15 403.5 90.15H400.71V92.56ZM411.547 89C411.947 89 412.324 89.0767 412.677 89.23C413.03 89.3833 413.337 89.5933 413.597 89.86C413.864 90.12 414.074 90.4267 414.227 90.78C414.38 91.1333 414.457 91.51 414.457 91.91V93.09C414.457 93.49 414.38 93.8667 414.227 94.22C414.074 94.5733 413.864 94.8833 413.597 95.15C413.337 95.41 413.03 95.6167 412.677 95.77C412.324 95.9233 411.947 96 411.547 96H409.837C409.437 96 409.06 95.9233 408.707 95.77C408.354 95.6167 408.044 95.41 407.777 95.15C407.517 94.8833 407.31 94.5733 407.157 94.22C407.004 93.8667 406.927 93.49 406.927 93.09V91.91C406.927 91.51 407.004 91.1333 407.157 90.78C407.31 90.4267 407.517 90.12 407.777 89.86C408.044 89.5933 408.354 89.3833 408.707 89.23C409.06 89.0767 409.437 89 409.837 89H411.547ZM409.867 90.15C409.62 90.15 409.387 90.1967 409.167 90.29C408.954 90.3833 408.764 90.51 408.597 90.67C408.437 90.83 408.31 91.02 408.217 91.24C408.124 91.4533 408.077 91.6833 408.077 91.93V93.07C408.077 93.3167 408.124 93.55 408.217 93.77C408.31 93.9833 408.437 94.1733 408.597 94.34C408.764 94.5 408.954 94.6267 409.167 94.72C409.387 94.8133 409.62 94.86 409.867 94.86H411.517C411.764 94.86 411.994 94.8133 412.207 94.72C412.427 94.6267 412.617 94.5 412.777 94.34C412.944 94.1733 413.074 93.9833 413.167 93.77C413.26 93.55 413.307 93.3167 413.307 93.07V91.93C413.307 91.6833 413.26 91.4533 413.167 91.24C413.074 91.02 412.944 90.83 412.777 90.67C412.617 90.51 412.427 90.3833 412.207 90.29C411.994 90.1967 411.764 90.15 411.517 90.15H409.867ZM421.13 89L423.19 94.41L424.11 89H425.26L424.06 96H422.57L420.52 90.61L418.47 96H416.97L415.78 89H416.92L417.85 94.41L419.9 89H421.13ZM426.804 89H432.194V90.15H427.954V92.73H431.554V93.87H427.954V94.86H432.194V96H426.804V89ZM433.834 96V89H438.024C438.278 89 438.514 89.05 438.734 89.15C438.961 89.2433 439.158 89.3733 439.324 89.54C439.491 89.7067 439.621 89.9033 439.714 90.13C439.814 90.35 439.864 90.5867 439.864 90.84V91.34C439.864 91.74 439.771 92.11 439.584 92.45C439.404 92.7833 439.164 93.0567 438.864 93.27C438.924 93.27 438.998 93.2833 439.084 93.31C439.178 93.3367 439.264 93.38 439.344 93.44C439.431 93.4933 439.504 93.5633 439.564 93.65C439.624 93.7367 439.654 93.8433 439.654 93.97V96H438.504V94.27C438.504 94.03 438.434 93.8767 438.294 93.81C438.154 93.7433 437.968 93.71 437.734 93.71H434.974V96H433.834ZM434.974 92.56H437.504C437.671 92.56 437.828 92.53 437.974 92.47C438.128 92.4033 438.258 92.3167 438.364 92.21C438.478 92.0967 438.564 91.9667 438.624 91.82C438.691 91.6667 438.724 91.5067 438.724 91.34V91.09C438.724 90.9567 438.698 90.8333 438.644 90.72C438.598 90.6067 438.531 90.51 438.444 90.43C438.358 90.3433 438.258 90.2767 438.144 90.23C438.031 90.1767 437.908 90.15 437.774 90.15H434.974V92.56ZM447.102 96H445.962V89H447.782L449.832 94.39L451.882 89H453.702V96H452.562V90.44L450.442 96H449.212L447.102 90.44V96ZM455.619 89H461.009V90.15H456.769V92.73H460.369V93.87H456.769V94.86H461.009V96H455.619V89ZM464.859 90.15H462.119V89H468.739V90.15H466.009V96H464.859V90.15ZM470.139 89H475.529V90.15H471.289V92.73H474.889V93.87H471.289V94.86H475.529V96H470.139V89ZM477.169 96V89H481.359C481.613 89 481.849 89.05 482.069 89.15C482.296 89.2433 482.493 89.3733 482.659 89.54C482.826 89.7067 482.956 89.9033 483.049 90.13C483.149 90.35 483.199 90.5867 483.199 90.84V91.34C483.199 91.74 483.106 92.11 482.919 92.45C482.739 92.7833 482.499 93.0567 482.199 93.27C482.259 93.27 482.333 93.2833 482.419 93.31C482.513 93.3367 482.599 93.38 482.679 93.44C482.766 93.4933 482.839 93.5633 482.899 93.65C482.959 93.7367 482.989 93.8433 482.989 93.97V96H481.839V94.27C481.839 94.03 481.769 93.8767 481.629 93.81C481.489 93.7433 481.303 93.71 481.069 93.71H478.309V96H477.169ZM478.309 92.56H480.839C481.006 92.56 481.163 92.53 481.309 92.47C481.463 92.4033 481.593 92.3167 481.699 92.21C481.813 92.0967 481.899 91.9667 481.959 91.82C482.026 91.6667 482.059 91.5067 482.059 91.34V91.09C482.059 90.9567 482.033 90.8333 481.979 90.72C481.933 90.6067 481.866 90.51 481.779 90.43C481.693 90.3433 481.593 90.2767 481.479 90.23C481.366 90.1767 481.243 90.15 481.109 90.15H478.309V92.56Z" fill="#BFBFBF"/>
<path d="M197.7 96H196.56V89H197.7V91.93H198.64L200.72 89H202.13L199.64 92.5L202.13 96H200.72L198.64 93.08H197.7V96ZM205.531 89H207.671L210.191 96H209.011L208.401 94.31H204.811L204.201 96H203.021L205.531 89ZM207.991 93.16L206.901 90.15H206.301L205.221 93.16H207.991ZM216.788 91.89C217.088 92.1033 217.328 92.38 217.508 92.72C217.695 93.0533 217.788 93.42 217.788 93.82V94.16C217.788 94.4133 217.738 94.6533 217.638 94.88C217.545 95.1 217.415 95.2933 217.248 95.46C217.081 95.6267 216.885 95.76 216.658 95.86C216.438 95.9533 216.201 96 215.948 96H211.678V94.86H215.698C215.831 94.86 215.955 94.8367 216.068 94.79C216.181 94.7367 216.278 94.6667 216.358 94.58C216.445 94.4933 216.511 94.3933 216.558 94.28C216.611 94.16 216.638 94.0367 216.638 93.91V93.82C216.638 93.6533 216.605 93.4967 216.538 93.35C216.478 93.1967 216.391 93.0667 216.278 92.96C216.171 92.8467 216.045 92.76 215.898 92.7C215.751 92.6333 215.595 92.6 215.428 92.6H212.648C212.461 92.6 212.285 92.5667 212.118 92.5C211.958 92.4267 211.818 92.33 211.698 92.21C211.578 92.09 211.481 91.95 211.408 91.79C211.341 91.6233 211.308 91.45 211.308 91.27V90.34C211.308 90.1533 211.341 89.98 211.408 89.82C211.481 89.6533 211.578 89.51 211.698 89.39C211.818 89.27 211.958 89.1767 212.118 89.11C212.285 89.0367 212.461 89 212.648 89H216.728V90.15H212.898C212.771 90.15 212.665 90.1933 212.578 90.28C212.498 90.36 212.458 90.4633 212.458 90.59V91.01C212.458 91.1367 212.498 91.2433 212.578 91.33C212.665 91.4167 212.771 91.46 212.898 91.46H215.398C215.745 91.46 216.028 91.51 216.248 91.61C216.475 91.71 216.655 91.8033 216.788 91.89ZM219.37 89H220.52V92.72H224.26V89H225.41V96H224.26V93.87H220.52V96H219.37V89ZM227.328 96V89H231.518C231.772 89 232.008 89.05 232.228 89.15C232.455 89.2433 232.652 89.3733 232.818 89.54C232.985 89.7067 233.115 89.9033 233.208 90.13C233.308 90.35 233.358 90.5867 233.358 90.84V91.34C233.358 91.74 233.265 92.11 233.078 92.45C232.898 92.7833 232.658 93.0567 232.358 93.27C232.232 93.35 232.095 93.4233 231.948 93.49C231.822 93.5433 231.675 93.5933 231.508 93.64C231.342 93.6867 231.165 93.71 230.978 93.71H228.478V96H227.328ZM228.478 92.56H230.998C231.165 92.56 231.322 92.53 231.468 92.47C231.622 92.4033 231.752 92.3167 231.858 92.21C231.972 92.0967 232.058 91.9667 232.118 91.82C232.185 91.6667 232.218 91.5067 232.218 91.34V91.09C232.218 90.9567 232.192 90.8333 232.138 90.72C232.092 90.6067 232.025 90.51 231.938 90.43C231.852 90.3433 231.752 90.2767 231.638 90.23C231.525 90.1767 231.402 90.15 231.268 90.15H228.478V92.56ZM236.192 89H238.332L240.852 96H239.672L239.062 94.31H235.472L234.862 96H233.682L236.192 89ZM238.652 93.16L237.562 90.15H236.962L235.882 93.16H238.652ZM246.652 89L248.712 94.41L249.632 89H250.782L249.582 96H248.092L246.042 90.61L243.992 96H242.492L241.302 89H242.442L243.372 94.41L245.422 89H246.652ZM253.749 89H255.889L258.409 96H257.229L256.619 94.31H253.029L252.419 96H251.239L253.749 89ZM256.209 93.16L255.119 90.15H254.519L253.439 93.16H256.209ZM266.131 89H268.271L270.791 96H269.611L269.001 94.31H265.411L264.801 96H263.621L266.131 89ZM268.591 93.16L267.501 90.15H266.901L265.821 93.16H268.591ZM272.177 96V89H276.367C276.621 89 276.857 89.05 277.077 89.15C277.304 89.2433 277.501 89.3733 277.667 89.54C277.834 89.7067 277.964 89.9033 278.057 90.13C278.157 90.35 278.207 90.5867 278.207 90.84V91.34C278.207 91.74 278.114 92.11 277.927 92.45C277.747 92.7833 277.507 93.0567 277.207 93.27C277.081 93.35 276.944 93.4233 276.797 93.49C276.671 93.5433 276.524 93.5933 276.357 93.64C276.191 93.6867 276.014 93.71 275.827 93.71H273.327V96H272.177ZM273.327 92.56H275.847C276.014 92.56 276.171 92.53 276.317 92.47C276.471 92.4033 276.601 92.3167 276.707 92.21C276.821 92.0967 276.907 91.9667 276.967 91.82C277.034 91.6667 277.067 91.5067 277.067 91.34V91.09C277.067 90.9567 277.041 90.8333 276.987 90.72C276.941 90.6067 276.874 90.51 276.787 90.43C276.701 90.3433 276.601 90.2767 276.487 90.23C276.374 90.1767 276.251 90.15 276.117 90.15H273.327V92.56ZM279.774 96V89H280.914V96H279.774Z" fill="#BFBFBF"/>
<path d="M263.499 14.4326C259.038 9.00255 252.879 5.23152 246.014 3.72643C239.149 2.22133 231.977 3.06973 225.653 6.13507C219.329 9.20041 214.22 14.3044 211.148 20.6257C208.077 26.9469 207.221 34.1178 208.72 40.9841C208.768 41.2087 208.869 41.4188 209.013 41.5975C209.157 41.7763 209.342 41.9188 209.551 42.0135C209.73 42.0898 209.922 42.1298 210.117 42.1312C210.305 42.1322 210.491 42.0959 210.664 42.0246C210.838 41.9532 210.995 41.8482 211.128 41.7156C211.26 41.5829 211.366 41.4252 211.437 41.2517C211.508 41.0782 211.544 40.8923 211.543 40.7047C211.551 40.6166 211.551 40.5281 211.543 40.44V40.3665C210.423 35.2384 210.742 29.9003 212.465 24.9421C214.188 19.984 217.249 15.5987 221.308 12.2709C226.359 8.08514 232.719 5.80325 239.279 5.82236C243.852 5.81433 248.359 6.90907 252.419 9.01378C256.479 11.1185 259.971 14.1711 262.6 17.9127C265.229 21.6544 266.917 25.9748 267.521 30.5077C268.125 35.0406 267.627 39.6522 266.069 43.9516C264.511 48.2511 261.94 52.1115 258.573 55.2056C255.205 58.2998 251.142 60.5363 246.726 61.7258C242.311 62.9152 237.674 63.0223 233.208 62.0382C228.742 61.0541 224.579 59.0076 221.073 56.0723L220.463 55.565L229.948 45.8885L240.088 47.4915C240.311 47.5264 240.54 47.5073 240.755 47.4356C240.97 47.364 241.165 47.242 241.323 47.0797L251.72 36.4547L252.22 36.7562C252.287 36.7957 252.365 36.8121 252.442 36.8028C252.519 36.7935 252.591 36.759 252.646 36.7047L254.161 35.1532C254.223 35.0875 254.257 35.0007 254.257 34.9106C254.256 34.8193 254.219 34.7321 254.154 34.6679L249.838 30.4326L253.691 26.4988C253.826 26.3667 253.933 26.2088 254.006 26.0346C254.08 25.8603 254.118 25.6732 254.118 25.4841C254.118 25.2951 254.08 25.1079 254.006 24.9337C253.933 24.7594 253.826 24.6016 253.691 24.4694C253.415 24.1955 253.042 24.0418 252.654 24.0418C252.265 24.0418 251.892 24.1955 251.617 24.4694L247.801 28.3665L244.727 25.3591L248.573 21.4327C248.777 21.1468 248.872 20.7975 248.84 20.4478C248.809 20.0981 248.654 19.7711 248.402 19.526C248.151 19.2809 247.82 19.1337 247.47 19.1112C247.12 19.0887 246.773 19.1923 246.492 19.4032L242.654 23.3224L240.911 21.6165L238.705 19.4106L238.485 19.2121C238.423 19.1812 238.355 19.1636 238.286 19.1606C238.199 19.1665 238.117 19.206 238.058 19.2709L236.543 20.815C236.49 20.8694 236.456 20.9399 236.446 21.0158C236.437 21.0916 236.453 21.1684 236.492 21.2341L236.779 21.7194L228.477 30.19L226.477 32.2341C226.28 32.4315 226.134 32.674 226.052 32.9405C225.97 33.207 225.955 33.4896 226.007 33.7635L227.793 43.7268L217.418 54.3076C217.135 54.614 216.978 55.0156 216.977 55.4326C216.964 55.5474 216.964 55.6634 216.977 55.7782C217.045 56.0975 217.206 56.3894 217.44 56.6165C217.845 57.0135 218.235 57.3518 218.617 57.7121C224.515 62.9063 232.152 65.6911 240.009 65.5128C247.867 65.3345 255.369 62.2062 261.026 56.7498C266.682 51.2933 270.079 43.9082 270.54 36.0624C271.001 28.2166 268.493 20.4846 263.514 14.4032L263.499 14.4326ZM229.257 33.4327C229.948 32.6974 233.11 29.4694 235.418 27.1312C237.088 25.44 237.911 24.6018 238.315 24.19L238.749 23.6974L249.779 34.4253L249.235 34.94C248.83 35.3371 248.036 36.1532 246.396 37.8444C244.08 40.2268 240.933 43.4621 240.183 44.1606L239.918 44.4106L230.676 42.94L230.573 42.4327C230.382 41.4253 229.793 38.1532 229.411 35.9841L229.007 33.7047L229.257 33.4327Z" fill="#5A5A5A"/>
<path d="M239.051 24.3885L239 24.4474L239.066 24.3959L239.051 24.3885Z" fill="#5A5A5A"/>
<path d="M390.354 34.3536C390.549 34.1583 390.549 33.8417 390.354 33.6464L387.172 30.4645C386.976 30.2692 386.66 30.2692 386.464 30.4645C386.269 30.6597 386.269 30.9763 386.464 31.1716L389.293 34L386.464 36.8284C386.269 37.0237 386.269 37.3403 386.464 37.5355C386.66 37.7308 386.976 37.7308 387.172 37.5355L390.354 34.3536ZM286 34.5H288V33.5H286V34.5ZM292 34.5H296V33.5H292V34.5ZM300 34.5H304V33.5H300V34.5ZM308 34.5H312V33.5H308V34.5ZM316 34.5H320V33.5H316V34.5ZM324 34.5H328V33.5H324V34.5ZM332 34.5H336V33.5H332V34.5ZM340 34.5H344V33.5H340V34.5ZM348 34.5H352V33.5H348V34.5ZM356 34.5H360V33.5H356V34.5ZM364 34.5H368V33.5H364V34.5ZM372 34.5H376V33.5H372V34.5ZM380 34.5H384V33.5H380V34.5ZM388 34.5H390V33.5H388V34.5Z" fill="#5A5A5A"/>
<path d="M189.354 34.3536C189.549 34.1583 189.549 33.8417 189.354 33.6464L186.172 30.4645C185.976 30.2692 185.66 30.2692 185.464 30.4645C185.269 30.6597 185.269 30.9763 185.464 31.1716L188.293 34L185.464 36.8284C185.269 37.0237 185.269 37.3403 185.464 37.5355C185.66 37.7308 185.976 37.7308 186.172 37.5355L189.354 34.3536ZM96 34.5H97.9375V33.5H96V34.5ZM101.812 34.5H105.687V33.5H101.812V34.5ZM109.562 34.5H113.438V33.5H109.562V34.5ZM117.312 34.5H121.188V33.5H117.312V34.5ZM125.062 34.5H128.937V33.5H125.062V34.5ZM132.812 34.5H136.688V33.5H132.812V34.5ZM140.562 34.5H144.437V33.5H140.562V34.5ZM148.312 34.5H152.188V33.5H148.312V34.5ZM156.062 34.5H159.937V33.5H156.062V34.5ZM163.812 34.5H167.687V33.5H163.812V34.5ZM171.562 34.5H175.438V33.5H171.562V34.5ZM179.312 34.5H183.188V33.5H179.312V34.5ZM187.062 34.5H189V33.5H187.062V34.5Z" fill="#5A5A5A"/>
</svg>
