<svg width="400" height="400" viewBox="0 0 442 442" fill="none" xmlns="http://www.w3.org/2000/svg">
<path d="M366.969 119.73C366.969 98.0794 347.413 80.6191 324.366 85.508C311.096 88.3016 300.619 99.4762 297.826 112.746C295.731 124.619 299.223 135.794 306.207 143.476C311.096 149.064 314.588 156.048 314.588 163.032V165.127H349.508V163.032C349.508 155.349 353 148.365 357.889 142.778C363.477 137.191 366.969 128.81 366.969 119.73Z" stroke="#5A5A5A" stroke-width="2" stroke-miterlimit="10" stroke-linecap="round" stroke-linejoin="round"/>
<path d="M332.048 200.048C322.27 200.048 314.588 192.365 314.588 182.587V165.127H349.508V182.587C349.508 192.365 341.826 200.048 332.048 200.048Z" stroke="#5A5A5A" stroke-width="2" stroke-miterlimit="10" stroke-linecap="round" stroke-linejoin="round"/>
<path d="M314.588 182.587H349.508" stroke="#5A5A5A" stroke-width="2" stroke-miterlimit="10" stroke-linecap="round" stroke-linejoin="round"/>
<path d="M332.048 49.889V63.8572" stroke="#5A5A5A" stroke-width="2" stroke-miterlimit="10" stroke-linecap="round" stroke-linejoin="round"/>
<path d="M287.349 65.9525L297.127 75.7303" stroke="#5A5A5A" stroke-width="2" stroke-miterlimit="10" stroke-linecap="round" stroke-linejoin="round"/>
<path d="M376.746 65.9525L366.968 75.7303" stroke="#5A5A5A" stroke-width="2" stroke-miterlimit="10" stroke-linecap="round" stroke-linejoin="round"/>
<path d="M196.556 4.49223H252.429" stroke="#5A5A5A" stroke-width="2" stroke-miterlimit="10" stroke-linecap="round" stroke-linejoin="round"/>
<path d="M283.159 18.4602H290.143" stroke="#5A5A5A" stroke-width="2" stroke-miterlimit="10" stroke-linecap="round" stroke-linejoin="round"/>
<path d="M224.492 18.4602H269.191" stroke="#5A5A5A" stroke-width="2" stroke-miterlimit="10" stroke-linecap="round" stroke-linejoin="round"/>
<path d="M175.603 49.8891C175.603 42.2065 169.318 35.9208 161.635 35.9208C153.953 35.9208 147.667 42.2065 147.667 49.8891C139.984 49.8891 133.699 56.1748 133.699 63.8573C133.699 71.5399 139.984 77.8256 147.667 77.8256H175.603C183.286 77.8256 189.572 71.5399 189.572 63.8573C189.572 56.1748 183.286 49.8891 175.603 49.8891Z" stroke="#5A5A5A" stroke-width="2" stroke-miterlimit="10" stroke-linecap="round" stroke-linejoin="round"/>
<path d="M25.4445 98.7778V14.9683C25.4445 7.28572 31.7302 1 39.4128 1H81.3176C89.0001 1 95.2858 7.28572 95.2858 14.9683V98.7778C95.2858 106.46 89.0001 112.746 81.3176 112.746H39.4128C31.7302 112.746 25.4445 106.46 25.4445 98.7778Z" stroke="#5A5A5A" stroke-width="2" stroke-miterlimit="10" stroke-linecap="round" stroke-linejoin="round"/>
<path d="M95.2858 84.8095H25.4445V98.7777C25.4445 106.46 31.7302 112.746 39.4128 112.746H81.3176C89.0001 112.746 95.2858 106.46 95.2858 98.7777V84.8095Z" stroke="#5A5A5A" stroke-width="2" stroke-miterlimit="10" stroke-linecap="round" stroke-linejoin="round"/>
<path d="M56.873 98.7779H63.8572" stroke="#5A5A5A" stroke-width="2" stroke-miterlimit="10" stroke-linecap="round" stroke-linejoin="round"/>
<path d="M427.032 441H14.9683C7.28572 441 1 434.714 1 427.032C1 419.349 7.28572 413.064 14.9683 413.064H427.032C434.715 413.064 441 419.349 441 427.032C441 434.714 434.715 441 427.032 441Z" stroke="#5A5A5A" stroke-width="2" stroke-miterlimit="10" stroke-linecap="round" stroke-linejoin="round"/>
<path d="M420.048 245.445V399.095" stroke="#5A5A5A" stroke-width="2" stroke-miterlimit="10" stroke-linecap="round" stroke-linejoin="round"/>
<path d="M315.286 182.587H256.619" stroke="#5A5A5A" stroke-width="2" stroke-miterlimit="10" stroke-linecap="round" stroke-linejoin="round"/>
<path d="M322.27 245.445H420.048L357.191 191.667" stroke="#5A5A5A" stroke-width="2" stroke-miterlimit="10" stroke-linecap="round" stroke-linejoin="round"/>
<path d="M392.111 399.095V329.254C392.111 321.572 385.826 315.286 378.143 315.286H329.254C321.572 315.286 315.286 321.572 315.286 329.254V399.095" stroke="#5A5A5A" stroke-width="2" stroke-miterlimit="10" stroke-linecap="round" stroke-linejoin="round"/>
<path d="M287.349 246.143V399.095" stroke="#5A5A5A" stroke-width="2" stroke-miterlimit="10" stroke-linecap="round" stroke-linejoin="round"/>
<path d="M35.9207 399.095V246.143" stroke="#5A5A5A" stroke-width="2" stroke-miterlimit="10" stroke-linecap="round" stroke-linejoin="round"/>
<path d="M308.302 259.413C304.81 259.413 302.016 258.016 299.223 255.921L161.635 137.889L24.0477 255.921C18.4604 260.81 9.38107 260.111 4.49218 254.524C-0.396708 248.937 0.301705 239.857 5.88901 234.968L152.556 109.254C157.445 105.064 165.826 105.064 170.714 109.254L317.381 234.968C322.969 239.857 323.667 248.937 318.778 254.524C315.984 258.016 312.492 259.413 308.302 259.413Z" stroke="#5A5A5A" stroke-width="2" stroke-miterlimit="10" stroke-linecap="round" stroke-linejoin="round"/>
<path d="M203.54 399.096V339.032C203.54 322.27 188.873 308.302 170.016 308.302H153.254C134.397 308.302 119.73 322.27 119.73 339.032V399.096" stroke="#5A5A5A" stroke-width="2" stroke-miterlimit="10" stroke-linecap="round" stroke-linejoin="round"/>
<path d="M196.556 217.508H126.714C122.524 217.508 119.73 220.302 119.73 224.492V266.397C119.73 270.587 122.524 273.381 126.714 273.381H196.556C200.746 273.381 203.54 270.587 203.54 266.397V224.492C203.54 220.302 200.746 217.508 196.556 217.508Z" stroke="#5A5A5A" stroke-width="2" stroke-miterlimit="10" stroke-linecap="round" stroke-linejoin="round"/>
<path d="M371.159 266.397H399.095V294.333" stroke="#5A5A5A" stroke-width="2" stroke-miterlimit="10" stroke-linecap="round" stroke-linejoin="round"/>
<path d="M56.873 133.699V126.714" stroke="#5A5A5A" stroke-width="2" stroke-miterlimit="10" stroke-linecap="round" stroke-linejoin="round"/>
<path d="M56.873 304.111V147.667" stroke="#5A5A5A" stroke-width="2" stroke-miterlimit="10" stroke-linecap="round" stroke-linejoin="round"/>
<path d="M70.8414 297.127V304.111" stroke="#5A5A5A" stroke-width="2" stroke-miterlimit="10" stroke-linecap="round" stroke-linejoin="round"/>
<path d="M70.8413 126.714V283.159" stroke="#5A5A5A" stroke-width="2" stroke-miterlimit="10" stroke-linecap="round" stroke-linejoin="round"/>
</svg>
