<svg width="49" height="50" viewBox="0 0 50 50" fill="none" xmlns="http://www.w3.org/2000/svg">
<path d="M44.3212 9.15714C42.2468 6.61312 39.689 4.50528 36.7954 2.95534C33.9018 1.40541 30.7299 0.444099 27.4627 0.126926C24.1959 -0.204458 20.8959 0.11462 17.7532 1.06575C14.6104 2.01687 11.6873 3.58119 9.15249 5.66837C6.60847 7.74274 4.50062 10.3006 2.95069 13.1941C1.40075 16.0877 0.43943 19.2597 0.122258 22.5269C-0.136585 25.1361 0.0161733 27.7699 0.574941 30.3317C0.629792 30.5964 0.74689 30.8441 0.916547 31.0545C1.0862 31.2649 1.30354 31.4318 1.55055 31.5415C1.76464 31.6351 1.99591 31.6829 2.22957 31.682C2.56687 31.6804 2.89593 31.5776 3.17421 31.387C3.45249 31.1964 3.66718 30.9266 3.79054 30.6127C3.86764 30.4163 3.90735 30.2071 3.90762 29.9961C3.91915 29.8924 3.91915 29.7877 3.90762 29.6839V29.6059C3.42213 27.3822 3.29043 25.0959 3.51738 22.8313C3.79043 20.0059 4.62078 17.2628 5.96043 14.7603C7.30009 12.2578 9.12247 10.0457 11.3222 8.25178C15.1613 5.07017 19.9947 3.3357 24.9807 3.35033C25.7066 3.35033 26.4402 3.38935 27.1583 3.45959C29.9839 3.73138 32.7276 4.56119 35.2302 5.90093C37.7329 7.24068 39.9448 9.06372 41.7378 11.2645C43.5446 13.4557 44.8985 15.9838 45.7211 18.7022C46.5437 21.4205 46.8187 24.2751 46.53 27.1005C46.2586 29.9263 45.429 32.67 44.0892 35.1727C42.7494 37.6754 40.9262 39.8873 38.7251 41.68C34.8372 44.8833 29.9499 46.6233 24.9124 46.5977C19.8749 46.572 15.0056 44.7823 11.1505 41.5395L17.9095 34.64L25.5349 35.8498C25.7997 35.8884 26.0699 35.8639 26.3235 35.7785C26.5771 35.6931 26.8069 35.549 26.9944 35.3581L34.7993 27.3815C34.9611 27.4806 35.1516 27.5221 35.34 27.4994C35.5284 27.4768 35.7036 27.3912 35.8373 27.2566L37.0236 26.0469C37.1805 25.8877 37.2684 25.6732 37.2684 25.4498C37.2684 25.2264 37.1805 25.0119 37.0236 24.8527L34.0656 21.9493L36.6724 19.2957C36.8308 19.1389 36.9565 18.9523 37.0422 18.7467C37.128 18.541 37.1722 18.3204 37.1722 18.0976C37.1722 17.8748 37.128 17.6542 37.0422 17.4486C36.9565 17.2429 36.8308 17.0563 36.6724 16.8996C36.5154 16.7389 36.3278 16.6111 36.1208 16.524C35.9137 16.4368 35.6913 16.3919 35.4666 16.3919C35.2419 16.3919 35.0195 16.4368 34.8124 16.524C34.6053 16.6111 34.4177 16.7389 34.2607 16.8996L31.6227 19.5923L30.0617 18.0313L32.6607 15.3776C32.9796 15.0573 33.1586 14.6237 33.1586 14.1718C33.1586 13.7198 32.9796 13.2862 32.6607 12.9659C32.3404 12.6471 31.9068 12.4681 31.4549 12.4681C31.0029 12.4681 30.5693 12.6471 30.249 12.9659L27.65 15.6196L26.9398 15.0498L24.9027 13.044L24.6451 12.7942C24.5128 12.7086 24.3578 12.6651 24.2003 12.6693C24.0893 12.6711 23.9798 12.6948 23.878 12.739C23.7762 12.7832 23.6841 12.847 23.6071 12.9269L22.4208 14.1288C22.2911 14.2624 22.2092 14.4352 22.1881 14.6201C22.1669 14.8051 22.2075 14.9919 22.3037 15.1513L16.7934 20.763L14.5613 23.042C14.3464 23.2645 14.1871 23.5345 14.0963 23.8302C14.0054 24.1258 13.9856 24.4387 14.0383 24.7435L15.3808 32.2283L8.35639 39.4088L7.51346 40.2673C7.18732 40.6137 7.00584 41.0716 7.00615 41.5473C6.9955 41.672 6.9955 41.7973 7.00615 41.9219C7.08239 42.2881 7.26736 42.6227 7.53688 42.882C7.85688 43.1941 8.16907 43.4907 8.47346 43.7561C13.0427 47.7858 18.9274 50.0065 25.0198 50C30.7848 49.9979 36.3717 48.0014 40.8324 44.3493C43.3787 42.2769 45.4881 39.7196 47.0382 36.8256C48.5884 33.9317 49.5484 30.7587 49.8626 27.4908C50.1985 24.2202 49.8816 20.9154 48.9304 17.7683C47.9791 14.6211 46.4124 11.6941 44.3212 9.15714ZM24.6451 17.5162L28.6802 21.4732L32.3563 25.1025C32.0363 25.4147 31.4197 26.0547 30.1319 27.3737C28.4149 29.1376 25.8783 31.7444 25.3007 32.283L18.7603 31.2449C18.5964 30.402 18.0734 27.4752 17.7847 25.8205C17.6988 25.3444 17.6286 24.9542 17.5895 24.7278C18.1203 24.1347 20.6646 21.5591 22.3973 19.803C23.6929 18.4918 24.3251 17.8518 24.6451 17.5162ZM24.8168 17.3288L24.8559 17.282L24.8168 17.3288Z" fill="#16B663"/>
</svg>
